<svg width="151" height="47" viewBox="0 0 151 47" fill="none" xmlns="http://www.w3.org/2000/svg">
<path d="M55.28 30V15.42H62.52C66.18 15.42 67.98 17.18 67.98 20.04C67.98 23.08 65.86 24.66 62.5 24.64H57.68V30H55.28ZM62.26 17.34H57.68V22.88H62.26C64.48 22.88 65.54 21.8 65.54 20.1C65.54 18.26 64.34 17.34 62.26 17.34ZM69.5927 30V19.42H71.6927L71.7927 21.28H71.8727C72.3127 20.06 73.4727 19.28 74.9327 19.28C75.3327 19.28 75.6727 19.32 75.8927 19.36V21.48C75.6127 21.4 75.2527 21.36 74.8927 21.36C73.1727 21.36 72.0127 22.3 71.8927 24.26V30H69.5927ZM82.4402 30.18C78.7002 30.18 76.3202 28.1 76.3202 24.76C76.3202 21.36 78.7002 19.26 82.3802 19.26C86.2002 19.26 88.4802 21.46 88.2402 25.16H78.6402C78.7002 27.3 80.1602 28.52 82.5002 28.52C84.3002 28.52 85.6202 27.82 85.9602 26.72H88.1802C87.8402 28.8 85.4802 30.18 82.4402 30.18ZM82.3602 20.92C80.2202 20.92 78.8602 22.02 78.6202 23.8H85.9202C85.8402 21.96 84.5002 20.92 82.3602 20.92ZM94.7842 30.2C91.3642 30.2 89.4242 28.82 89.3442 26.68H91.6242C91.6642 27.96 92.8442 28.72 94.8442 28.72C96.6442 28.72 97.7642 28.24 97.7642 27.14C97.7642 25.94 97.0042 25.7 94.6242 25.46C91.1642 25.12 89.7242 24.44 89.7242 22.44C89.7242 20.46 91.6442 19.22 94.7642 19.22C97.8042 19.22 99.5642 20.48 99.7642 22.58H97.5642C97.4242 21.28 96.3242 20.72 94.7642 20.72C93.1442 20.72 91.9842 21.18 91.9842 22.26C91.9842 23.3 92.8842 23.58 95.0842 23.8C98.6242 24.14 100.064 24.72 100.064 26.98C100.064 28.92 98.3442 30.2 94.7842 30.2ZM107.343 30.18C103.603 30.18 101.222 28.1 101.222 24.76C101.222 21.36 103.603 19.26 107.283 19.26C111.103 19.26 113.383 21.46 113.143 25.16H103.543C103.603 27.3 105.063 28.52 107.403 28.52C109.203 28.52 110.523 27.82 110.863 26.72H113.083C112.743 28.8 110.383 30.18 107.343 30.18ZM107.263 20.92C105.123 20.92 103.763 22.02 103.523 23.8H110.823C110.743 21.96 109.403 20.92 107.263 20.92ZM114.905 30V19.42H117.165L117.225 21.6H117.365C118.125 20.1 119.825 19.26 121.645 19.26C124.345 19.26 126.245 20.52 126.245 24.2V30H123.925V24.6C123.925 22.2 122.985 21.06 120.905 21.06C118.705 21.06 117.225 22.56 117.225 24.76V30H114.905ZM131.892 30C130.292 30 129.312 29.26 129.312 27.7V21.2H127.172V19.42H129.312V16.48L131.592 16.02V19.42H134.372V21.2H131.592V27C131.592 27.78 131.992 28 132.772 28H134.372V30H131.892ZM140.761 30.2C137.341 30.2 135.401 28.82 135.321 26.68H137.601C137.641 27.96 138.821 28.72 140.821 28.72C142.621 28.72 143.741 28.24 143.741 27.14C143.741 25.94 142.981 25.7 140.601 25.46C137.141 25.12 135.701 24.44 135.701 22.44C135.701 20.46 137.621 19.22 140.741 19.22C143.781 19.22 145.541 20.48 145.741 22.58H143.541C143.401 21.28 142.301 20.72 140.741 20.72C139.121 20.72 137.961 21.18 137.961 22.26C137.961 23.3 138.861 23.58 141.061 23.8C144.601 24.14 146.041 24.72 146.041 26.98C146.041 28.92 144.321 30.2 140.761 30.2ZM147.418 21.54V19.42H149.758V21.54H147.418ZM147.418 30V27.9H149.758V30H147.418Z" fill="#D8D9C5"/>
<path d="M23.5 44.2713C34.9716 44.2713 44.2713 34.9716 44.2713 23.5C44.2713 12.0283 34.9716 2.72873 23.5 2.72873C12.0283 2.72873 2.72874 12.0283 2.72874 23.5C2.72874 34.9716 12.0283 44.2713 23.5 44.2713Z" stroke="#D8D9C5" stroke-width="2" stroke-linecap="round" stroke-dasharray="150 150 400 300"/>
<path d="M35.25 35.25C41.7393 28.7606 41.7393 18.2394 35.25 11.75C28.7606 5.26067 18.2394 5.26067 11.75 11.75C5.26067 18.2394 5.26067 28.7606 11.75 35.25C18.2394 41.7393 28.7606 41.7393 35.25 35.25Z" stroke="#D8D9C5" stroke-width="2" stroke-linecap="round" stroke-dasharray="150 150 400 300"/>
<path d="M27.2262 15.0028C27.478 14.3222 28.4406 14.3222 28.6924 15.0028L30.6059 20.1739C30.7247 20.4949 30.9777 20.748 31.2987 20.8667L36.4698 22.7802C37.1504 23.032 37.1504 23.9946 36.4698 24.2465L31.2987 26.16C30.9777 26.2787 30.7247 26.5318 30.6059 26.8527L28.6924 32.0239C28.4406 32.7045 27.478 32.7045 27.2262 32.0239L25.3127 26.8527C25.1939 26.5318 24.9408 26.2787 24.6199 26.16L19.4487 24.2465C18.7681 23.9946 18.7681 23.032 19.4487 22.7802L24.6199 20.8667C24.9408 20.748 25.1939 20.4949 25.3127 20.1739L27.2262 15.0028Z" stroke="url(#paint0_linear_29_77)" stroke-width="0.6"/>
<path d="M19.7517 32.0239C19.4998 32.7045 18.5373 32.7045 18.2854 32.0239L16.3719 26.8527C16.2532 26.5318 16.0001 26.2787 15.6791 26.16L10.508 24.2465C9.8274 23.9946 9.8274 23.0321 10.508 22.7802L15.6791 20.8667C16.0001 20.748 16.2532 20.4949 16.3719 20.1739L18.2854 15.0028C18.5373 14.3222 19.4998 14.3222 19.7517 15.0028L21.6652 20.1739C21.7839 20.4949 22.037 20.748 22.3579 20.8667L27.5291 22.7802C28.2097 23.0321 28.2097 23.9946 27.5291 24.2465L22.3579 26.16C22.037 26.2787 21.7839 26.5318 21.6652 26.8527L19.7517 32.0239Z" stroke="url(#paint1_linear_29_77)" stroke-width="0.6"/>
<path d="M22.7924 14.942C23.1071 14.0913 24.3104 14.0913 24.6252 14.942L26.5387 20.1132C26.6377 20.3806 26.8485 20.5915 27.116 20.6905L32.2871 22.604C33.1379 22.9188 33.1379 24.122 32.2871 24.4368L27.116 26.3503C26.8485 26.4493 26.6377 26.6601 26.5387 26.9276L24.6252 32.0988C24.3104 32.9495 23.1071 32.9495 22.7924 32.0988L20.8788 26.9276C20.7799 26.6601 20.569 26.4493 20.3016 26.3503L15.1304 24.4368C14.2797 24.122 14.2797 22.9188 15.1304 22.604L20.3016 20.6905C20.569 20.5915 20.7799 20.3806 20.8788 20.1132L22.7924 14.942Z" fill="#D8D9C5"/>
<path d="M9.91788 24.3794C10.2687 24.3794 10.553 24.0951 10.553 23.7443C10.553 23.3935 10.2687 23.1092 9.91788 23.1092C9.56711 23.1092 9.28275 23.3935 9.28275 23.7443C9.28275 24.0951 9.56711 24.3794 9.91788 24.3794Z" fill="#D8D9C5"/>
<path d="M9.91788 24.2817C10.2147 24.2817 10.4553 24.0411 10.4553 23.7443C10.4553 23.4475 10.2147 23.2068 9.91788 23.2068C9.62107 23.2068 9.38046 23.4475 9.38046 23.7443C9.38046 24.0411 9.62107 24.2817 9.91788 24.2817Z" stroke="white" stroke-opacity="0.4" stroke-width="0.2"/>
<path d="M16.0738 27.0665C16.4246 27.0665 16.7089 26.7822 16.7089 26.4314C16.7089 26.0806 16.4246 25.7963 16.0738 25.7963C15.723 25.7963 15.4387 26.0806 15.4387 26.4314C15.4387 26.7822 15.723 27.0665 16.0738 27.0665Z" fill="#D8D9C5"/>
<path d="M16.0738 26.9688C16.3706 26.9688 16.6112 26.7282 16.6112 26.4314C16.6112 26.1346 16.3706 25.894 16.0738 25.894C15.777 25.894 15.5364 26.1346 15.5364 26.4314C15.5364 26.7282 15.777 26.9688 16.0738 26.9688Z" fill="#D8D9C5"/>
<path d="M27.9459 15.2432C28.2967 15.2432 28.5811 14.9589 28.5811 14.6081C28.5811 14.2573 28.2967 13.973 27.9459 13.973C27.5952 13.973 27.3108 14.2573 27.3108 14.6081C27.3108 14.9589 27.5952 15.2432 27.9459 15.2432Z" fill="#D8D9C5"/>
<path d="M27.9459 15.1455C28.2428 15.1455 28.4834 14.9049 28.4834 14.6081C28.4834 14.3113 28.2428 14.0707 27.9459 14.0707C27.6491 14.0707 27.4085 14.3113 27.4085 14.6081C27.4085 14.9049 27.6491 15.1455 27.9459 15.1455Z" fill="#D8D9C5"/>
<path d="M36.8378 24.1351C37.1886 24.1351 37.473 23.8508 37.473 23.5C37.473 23.1492 37.1886 22.8649 36.8378 22.8649C36.4871 22.8649 36.2027 23.1492 36.2027 23.5C36.2027 23.8508 36.4871 24.1351 36.8378 24.1351Z" fill="#D8D9C5"/>
<path d="M36.8378 24.0374C37.1347 24.0374 37.3753 23.7968 37.3753 23.5C37.3753 23.2032 37.1347 22.9626 36.8378 22.9626C36.541 22.9626 36.3004 23.2032 36.3004 23.5C36.3004 23.7968 36.541 24.0374 36.8378 24.0374Z" stroke="white" stroke-opacity="0.4" stroke-width="0.2"/>
<path d="M19.0052 32.9782C19.302 32.9782 19.5426 32.7376 19.5426 32.4407C19.5426 32.1439 19.302 31.9033 19.0052 31.9033C18.7084 31.9033 18.4678 32.1439 18.4678 32.4407C18.4678 32.7376 18.7084 32.9782 19.0052 32.9782Z" fill="#D8D9C5" stroke="#D8D9C5" stroke-width="0.2"/>
<defs>
<linearGradient id="paint0_linear_29_77" x1="27.9593" y1="12.4584" x2="27.9459" y2="25.552" gradientUnits="userSpaceOnUse">
<stop stop-color="#D8D9C5"/>
<stop offset="1" stop-color="#D8D9C5" stop-opacity="0"/>
</linearGradient>
<linearGradient id="paint1_linear_29_77" x1="19.0185" y1="34.5683" x2="19.0319" y2="21.4747" gradientUnits="userSpaceOnUse">
<stop stop-color="#D8D9C5"/>
<stop offset="1" stop-color="#D8D9C5" stop-opacity="0"/>
</linearGradient>
</defs>
</svg>
